<svg width="350" height="350" viewBox="0 0 350 350" fill="none" xmlns="http://www.w3.org/2000/svg">
<style>
  path { fill: #782641 !important; }
</style>
<g clip-path="url(#clip0_5_61)">
<path d="M169.299 0.0259485C169.712 0.0228806 170.126 0.0198126 170.552 0.0166517C171.891 0.00804362 173.229 0.00463103 174.567 0.00226106C174.795 0.00170581 175.022 0.00115057 175.257 0.000578493C183.061 -0.0162604 190.747 0.331974 198.488 1.37862C199.099 1.459 199.099 1.459 199.722 1.54101C201.539 1.78836 203.328 2.06656 205.112 2.4885C205.97 2.68604 206.831 2.85456 207.695 3.02178C210.997 3.6625 214.268 4.31381 217.506 5.22721C218.463 5.48652 219.421 5.70351 220.391 5.90845C223.317 6.53851 226.142 7.45275 228.978 8.40007C229.184 8.46881 229.391 8.53755 229.603 8.60837C231.799 9.34216 233.969 10.1105 236.112 10.9873C237.22 11.4306 238.35 11.8068 239.481 12.1901C241.867 13.0181 244.134 14.0028 246.409 15.1024C246.892 15.3298 247.375 15.5567 247.858 15.7831C251.908 17.6826 255.925 19.6149 259.827 21.8047C260.125 21.9717 260.423 22.1388 260.73 22.311C261.694 22.8527 262.658 23.3957 263.621 23.939C264.115 24.217 264.115 24.217 264.619 24.5007C264.935 24.6786 265.25 24.8565 265.575 25.0399C265.86 25.2002 266.144 25.3605 266.437 25.5257C267.015 25.8608 267.578 26.2218 268.134 26.592C268.134 26.8026 268.134 27.0133 268.134 27.2303C268.43 27.2994 268.43 27.2994 268.733 27.3699C269.411 27.5495 269.411 27.5495 270.05 27.8686C270.05 28.0793 270.05 28.2899 270.05 28.5069C270.306 28.5724 270.562 28.6378 270.825 28.7052C272.344 29.2905 273.573 30.152 274.902 31.0801C275.306 31.3584 275.306 31.3584 275.717 31.6423C277.502 32.8869 279.203 34.1894 280.864 35.5957C281.69 36.2813 282.573 36.8535 283.468 37.4433C285.039 38.6702 285.039 38.6702 285.705 39.3583C285.705 39.5689 285.705 39.7796 285.705 39.9966C285.89 40.0834 286.075 40.1702 286.266 40.2596C288.429 41.3927 290.473 43.1615 292.19 44.8824C293.093 45.7821 294.024 46.6414 294.969 47.4968C296.172 48.5856 297.343 49.6935 298.484 50.8479C299.29 51.6576 300.1 52.4617 300.925 53.2528C301.337 53.6521 301.337 53.6521 301.758 54.0594C302.037 54.3264 302.315 54.5934 302.602 54.8685C303.262 55.6194 303.418 55.965 303.595 56.9119C304.016 57.1351 304.442 57.3483 304.873 57.5502C304.979 57.8662 305.084 58.1821 305.193 58.5077C305.617 58.723 306.043 58.9353 306.47 59.146C307.121 59.7806 307.121 59.7806 307.768 60.5224C307.983 60.7647 308.197 61.007 308.419 61.2567C309.026 62.0184 309.026 62.0184 309.493 62.8113C310.052 63.7241 310.701 64.4184 311.442 65.19C313.142 67.0251 314.58 68.9896 315.994 71.0489C316.265 71.437 316.542 71.821 316.823 72.2021C317.972 73.7626 317.972 73.7626 317.972 74.4655C318.182 74.4655 318.393 74.4655 318.611 74.4655C319.067 75.1226 319.482 75.7733 319.888 76.4602C320.002 76.6474 320.116 76.8346 320.233 77.0275C320.688 77.7818 321.127 78.5321 321.506 79.3277C321.779 79.9089 321.779 79.9089 322.252 80.3363C324.655 82.7425 326.232 86.5641 327.874 89.526C328.152 90.0278 328.432 90.5286 328.713 91.0292C332.619 98.0719 332.619 98.0719 333.626 101.594C333.837 101.594 334.048 101.594 334.265 101.594C334.45 102.062 334.45 102.062 334.639 102.54C334.807 102.963 334.975 103.385 335.143 103.808C335.264 104.114 335.264 104.114 335.388 104.427C335.834 105.547 336.302 106.65 336.804 107.746C337.568 109.447 338.161 111.199 338.757 112.964C339.58 115.428 339.58 115.428 340.543 117.838C341.021 118.937 341.344 120.031 341.663 121.182C341.926 122.057 341.926 122.057 342.381 122.995C343.101 124.637 343.448 126.383 343.849 128.124C343.933 128.479 344.016 128.834 344.103 129.2C344.449 130.672 344.789 132.146 345.122 133.622C345.203 133.98 345.283 134.338 345.367 134.706C345.431 135.001 345.495 135.295 345.561 135.599C345.745 136.382 345.745 136.382 346.073 137.089C346.461 138.129 346.633 139.121 346.805 140.217C346.856 140.531 346.856 140.531 346.908 140.852C347.015 141.516 347.119 142.18 347.223 142.845C347.329 143.514 347.435 144.183 347.543 144.852C347.64 145.455 347.735 146.059 347.829 146.663C347.91 147.519 347.91 147.519 348.322 147.872C348.438 148.684 348.535 149.491 348.621 150.306C348.648 150.556 348.675 150.805 348.703 151.063C348.761 151.595 348.818 152.128 348.874 152.66C348.959 153.457 349.045 154.253 349.133 155.049C349.845 161.625 349.995 168.152 349.999 174.76C349.999 174.991 349.999 175.221 350 175.458C350.008 182.687 349.832 189.837 348.961 197.022C348.91 197.471 348.859 197.921 348.808 198.37C348.755 198.825 348.702 199.279 348.649 199.733C348.601 200.138 348.554 200.543 348.506 200.961C348.321 202.135 348.018 203.222 347.683 204.362C347.543 205.062 347.413 205.764 347.293 206.468C347.226 206.855 347.159 207.243 347.09 207.642C346.952 208.449 346.815 209.256 346.678 210.063C346.611 210.45 346.544 210.837 346.475 211.235C346.385 211.761 346.385 211.761 346.294 212.296C346.084 213.306 345.779 214.239 345.446 215.214C345.266 215.911 345.094 216.611 344.928 217.313C344.834 217.71 344.739 218.107 344.642 218.516C344.544 218.931 344.446 219.346 344.348 219.762C343.563 223.092 342.769 226.384 341.532 229.579C341.279 230.251 341.055 230.928 340.834 231.61C340.506 232.608 340.143 233.581 339.745 234.553C338.922 236.592 338.19 238.662 337.46 240.735C336.892 242.318 336.275 243.824 335.498 245.315C335.17 245.957 334.907 246.61 334.664 247.289C334.532 247.657 334.401 248.026 334.265 248.406C334.054 248.406 333.843 248.406 333.626 248.406C333.52 248.775 333.415 249.143 333.306 249.523C331.75 254.195 328.97 258.597 326.488 262.818C326.027 263.607 325.58 264.401 325.14 265.202C324.55 266.264 323.953 267.322 323.343 268.373C323.109 268.779 323.109 268.779 322.87 269.192C322.729 269.389 322.589 269.586 322.444 269.789C322.233 269.789 322.022 269.789 321.805 269.789C321.726 270.008 321.647 270.226 321.566 270.451C321.097 271.547 320.512 272.547 319.888 273.559C319.775 273.75 319.661 273.941 319.544 274.137C319.251 274.615 318.933 275.076 318.611 275.534C318.4 275.534 318.189 275.534 317.972 275.534C317.897 275.756 317.823 275.978 317.747 276.206C317.25 277.314 316.568 278.203 315.815 279.145C315.525 279.513 315.236 279.882 314.947 280.251C314.807 280.427 314.667 280.604 314.523 280.786C314.037 281.408 313.567 282.04 313.1 282.675C311.215 285.19 311.215 285.19 310.304 286.066C310.093 286.066 309.882 286.066 309.665 286.066C309.576 286.464 309.576 286.464 309.484 286.871C308.87 288.359 307.926 289.295 306.81 290.435C306.506 290.752 306.506 290.752 306.197 291.076C305.486 291.818 304.77 292.554 304.041 293.277C303.508 293.814 303.026 294.385 302.537 294.963C301.585 296.059 300.558 296.946 299.442 297.875C299.083 298.268 298.73 298.668 298.384 299.072C296.566 301.192 294.676 303.169 292.357 304.742C291.726 305.219 291.726 305.219 291.177 305.981C290.42 306.905 289.629 307.513 288.66 308.208C287.066 309.374 285.575 310.599 284.107 311.918C280.179 315.307 275.836 318.494 271.343 321.098C270.533 321.587 269.82 322.167 269.092 322.769C268.562 323.093 268.03 323.412 267.495 323.727C267.16 323.931 267.16 323.931 266.819 324.138C264.495 325.549 262.126 326.875 259.752 328.199C259.301 328.451 258.85 328.707 258.401 328.963C254.507 331.173 250.424 333.058 246.364 334.94C245.853 335.178 245.346 335.42 244.838 335.664C242.889 336.586 240.897 337.321 238.858 338.016C237.672 338.421 236.505 338.851 235.345 339.326C233.278 340.16 231.172 340.874 229.058 341.58C228.847 341.65 228.636 341.721 228.419 341.793C225.047 342.915 221.668 343.847 218.194 344.6C217.243 344.812 216.298 345.043 215.353 345.277C211.869 346.14 208.408 346.929 204.858 347.459C203.972 347.603 203.129 347.768 202.259 347.975C200.815 348.299 199.383 348.487 197.912 348.632C197.526 348.672 197.526 348.672 197.133 348.713C196.32 348.797 195.507 348.879 194.694 348.96C194.152 349.016 193.61 349.072 193.068 349.128C190.525 349.389 190.525 349.389 189.333 349.505C188.814 349.556 188.294 349.609 187.775 349.665C185.42 349.903 183.081 349.959 180.715 349.974C180.094 349.978 180.094 349.978 179.461 349.983C178.123 349.992 176.784 349.995 175.446 349.997C175.105 349.998 175.105 349.998 174.756 349.999C168.863 350.01 163.005 349.934 157.136 349.319C156.882 349.293 156.628 349.266 156.366 349.239C153.129 348.892 149.93 348.376 146.73 347.781C146.129 347.67 145.527 347.562 144.925 347.454C134.814 345.637 124.233 343.618 114.843 339.345C113.719 338.863 112.558 338.512 111.391 338.149C108.886 337.341 106.545 336.34 104.185 335.18C103.212 334.706 102.23 334.255 101.248 333.8C100.854 333.616 100.46 333.432 100.066 333.248C99.1616 332.825 98.2553 332.406 97.3483 331.989C96.8578 331.762 96.3674 331.534 95.8769 331.307C95.6472 331.202 95.4174 331.097 95.1807 330.988C94.0478 330.461 93.1028 329.905 92.1031 329.153C91.4888 328.826 90.8655 328.521 90.24 328.216C86.5884 326.421 83.1604 324.323 79.8396 321.98C78.8626 321.291 77.8652 320.646 76.8482 320.017C74.1308 318.313 71.618 316.311 69.1122 314.314C68.4622 313.813 68.4622 313.813 67.702 313.402C66.4818 312.635 65.4926 311.641 64.4561 310.65C63.7532 309.989 63.0871 309.398 62.2535 308.907C61.0823 308.193 60.1624 307.261 59.1773 306.313C57.6833 304.892 56.1744 303.533 54.5649 302.244C53.1569 301.1 52.0921 299.921 51.032 298.456C50.4488 297.72 49.7839 297.383 48.9741 296.918C48.4063 296.333 47.8842 295.72 47.358 295.098C46.7064 294.327 46.0365 293.577 45.36 292.829C45.1208 292.563 44.8815 292.297 44.635 292.023C44.0867 291.42 43.5357 290.82 42.9802 290.223C42.8343 290.065 42.6885 289.908 42.5382 289.745C42.1255 289.3 41.7111 288.855 41.2967 288.411C40.6678 287.662 40.6678 287.662 40.3483 286.705C40.0847 286.441 39.8212 286.178 39.5496 285.907C38.7509 285.109 38.7509 285.109 38.4314 284.151C38.1152 284.046 37.7989 283.941 37.473 283.832C36.9401 283.156 36.4537 282.49 35.9755 281.778C35.7763 281.491 35.7763 281.491 35.573 281.199C34.5978 279.77 34.5978 279.77 34.5978 279.045C34.2815 278.94 33.9652 278.834 33.6393 278.726C33.1938 278.156 33.1938 278.156 32.7408 277.429C32.1107 276.443 31.4647 275.499 30.7441 274.577C30.0921 273.723 29.5508 272.872 29.0469 271.924C28.427 270.763 27.7169 269.727 26.9304 268.672C25.8266 267.186 24.9133 265.682 24.0551 264.045C23.743 263.472 23.4302 262.901 23.1166 262.329C22.6161 261.413 22.1176 260.495 21.6241 259.575C21.4577 259.266 21.2913 258.957 21.1199 258.639C20.8957 258.22 20.8957 258.22 20.6669 257.792C20.2499 257.031 20.2499 257.031 19.7584 256.431C19.072 255.483 18.5964 254.45 18.1049 253.393C17.9554 253.083 17.9554 253.083 17.8029 252.767C17.2225 251.527 16.8648 250.419 16.7072 249.044C16.4963 249.044 16.2855 249.044 16.0682 249.044C15.964 248.76 15.8599 248.475 15.7525 248.182C15.6129 247.808 15.4733 247.434 15.3295 247.049C15.1923 246.679 15.0552 246.309 14.9139 245.927C14.5196 245.009 14.1102 244.403 13.5124 243.619C10.6372 237.216 10.6372 237.216 10.6372 234.363C10.4263 234.363 10.2155 234.363 9.99822 234.363C9.89403 234.024 9.78984 233.685 9.68249 233.336C9.39475 232.405 9.10635 231.474 8.81517 230.544C8.74794 230.329 8.68071 230.114 8.61144 229.892C8.33253 229.05 8.00787 228.229 7.68203 227.404C7.19258 225.973 6.84577 224.494 6.47277 223.029C6.20107 221.957 6.20107 221.957 5.83632 221.132C5.33773 219.829 5.16296 218.461 4.9328 217.091C4.77277 216.18 4.61457 215.327 4.25642 214.471C3.87825 213.488 3.70822 212.555 3.53885 211.516C3.47172 211.114 3.40459 210.711 3.33543 210.297C3.26663 209.874 3.198 209.452 3.12952 209.03C2.99425 208.203 2.85785 207.376 2.72019 206.549C2.66069 206.183 2.60118 205.817 2.53987 205.44C2.34657 204.351 2.34657 204.351 2.00769 203.269C1.66621 202.035 1.49412 200.823 1.36118 199.554C1.33448 199.312 1.30777 199.071 1.28026 198.823C1.22434 198.314 1.16936 197.805 1.11526 197.296C1.034 196.533 0.949824 195.77 0.865121 195.006C0.810661 194.508 0.75637 194.009 0.702264 193.51C0.677965 193.288 0.653671 193.067 0.628635 192.839C0.220027 188.97 0.0402902 185.118 0.0296206 181.228C0.0287173 181 0.0278214 180.771 0.0268907 180.535C0.022138 179.318 0.019161 178.101 0.0177651 176.884C0.0163809 175.905 0.0120028 174.927 0.00466167 173.948C-0.0653002 164.417 0.654486 155.078 2.01136 145.637C2.22221 145.637 2.43307 145.637 2.65031 145.637C2.65855 145.408 2.66678 145.179 2.67527 144.943C2.89904 140.863 3.74307 136.85 5.00144 132.965C5.23597 132.126 5.36127 131.299 5.48564 130.438C5.87253 127.975 6.65642 125.654 7.44243 123.296C7.54924 122.974 7.65606 122.652 7.76611 122.32C8.50502 120.09 9.24941 117.863 9.99822 115.637C10.2091 115.637 10.4199 115.637 10.6372 115.637C10.6648 115.428 10.6924 115.219 10.7208 115.003C11.0936 112.584 11.8627 110.518 12.8735 108.296C13.0866 107.817 13.2996 107.339 13.5124 106.86C13.6146 106.633 13.7167 106.407 13.8219 106.173C14.3443 104.985 14.8308 103.782 15.3195 102.58C15.7466 101.599 16.2122 100.648 16.696 99.6936C17.0092 99.0751 17.316 98.454 17.6207 97.8313C18.8414 95.351 20.128 92.9319 21.5193 90.543C22.1281 89.4835 22.7051 88.4117 23.2764 87.3315C24.1485 85.6984 25.0975 84.1391 26.1092 82.589C26.5504 81.9006 26.9562 81.2059 27.3497 80.4896C27.8888 79.572 27.8888 79.572 28.5277 79.2529C28.8417 78.7058 28.8417 78.7058 29.1268 78.056C29.6682 76.9346 30.2826 76.064 31.0835 75.1038C31.4262 74.6207 31.7653 74.135 32.1019 73.6477C33.2058 72.0587 34.3611 70.513 35.53 68.9713C36.0825 68.2329 36.6123 67.4863 37.1336 66.726C37.351 66.4363 37.5685 66.1467 37.7925 65.8483C38.0033 65.8483 38.2142 65.8483 38.4314 65.8483C38.5039 65.6771 38.5764 65.506 38.6511 65.3297C39.2034 64.3312 39.9358 63.5306 40.6678 62.6567C40.8259 62.3868 40.984 62.1169 41.147 61.8389C41.7324 60.8885 42.4143 60.2384 43.2236 59.4651C44.8272 57.8963 46.3754 56.3075 47.8385 54.6067C48.5019 53.849 49.2108 53.1458 49.9325 52.4437C50.8002 51.5991 51.6105 50.7524 52.3685 49.8107C53.4555 48.521 54.7478 47.5327 56.0637 46.4857C57.1739 45.5648 58.1697 44.561 59.1773 43.531C60.2963 42.4067 61.4309 41.3176 62.8163 40.5327C63.8536 39.8812 64.7058 39.0834 65.5868 38.2412C66.6928 37.1839 67.7706 36.2942 69.101 35.5284C69.8576 34.9983 70.5964 34.4445 71.3373 33.8927C74.3836 31.6443 77.473 29.4784 80.6844 27.4697C81.6233 26.8712 82.5389 26.2438 83.4574 25.6146C85.0433 24.5494 86.6686 23.6865 88.3893 22.8606C89.3774 22.3685 90.2375 21.7922 91.1447 21.1663C91.7826 20.845 92.4217 20.5262 93.0616 20.2089C93.632 19.9005 94.2024 19.5921 94.7717 19.2817C96.5838 18.2965 98.373 17.4002 100.307 16.6732C101.383 16.2462 102.4 15.716 103.431 15.1921C107.232 13.2787 111.204 11.7138 115.301 10.5577C116.037 10.3235 116.708 10.0394 117.407 9.71285C126.037 5.82856 136.143 3.97859 145.449 2.50946C146.238 2.36762 147.01 2.20011 147.79 2.01818C149.222 1.69595 150.643 1.51128 152.102 1.3674C152.359 1.34073 152.616 1.31405 152.881 1.28657C153.693 1.20264 154.506 1.12106 155.319 1.03952C155.861 0.983776 156.403 0.927883 156.945 0.871838C159.488 0.610448 159.488 0.610448 160.68 0.494559C161.2 0.443619 161.719 0.390238 162.238 0.334932C164.593 0.0968883 166.933 0.0406753 169.299 0.0259485ZM98.8121 65.8483C96.9548 68.4812 96.4987 70.973 96.8953 74.1464C97.11 75.0449 97.3757 75.5571 97.8537 76.3804C97.9624 76.5927 98.0711 76.805 98.1831 77.0238C99.3859 79.2158 101.232 80.4196 103.604 81.1678C105.006 81.4459 106.335 81.5281 107.763 81.5312C108.091 81.5326 108.091 81.5326 108.426 81.534C109.16 81.5366 109.894 81.537 110.627 81.5375C111.159 81.5389 111.69 81.5405 112.221 81.5422C113.681 81.5466 115.141 81.5489 116.601 81.551C118.176 81.5535 119.75 81.5579 121.325 81.5621C124.053 81.569 126.78 81.5748 129.508 81.5798C133.452 81.5871 137.396 81.596 141.34 81.6054C147.739 81.6207 154.138 81.6345 160.536 81.6474C166.752 81.66 172.968 81.6732 179.184 81.6873C179.568 81.6882 179.951 81.689 180.345 81.6899C182.267 81.6943 184.189 81.6987 186.111 81.703C202.057 81.7394 218.004 81.7735 233.95 81.8061C233.597 82.3683 233.243 82.9298 232.888 83.491C232.691 83.8038 232.494 84.1166 232.291 84.4388C231.584 85.5139 230.815 86.4325 229.956 87.3914C228.631 88.9015 227.54 90.4472 226.495 92.1675C225.795 93.2325 224.96 94.1207 224.096 95.0536C223.288 95.9865 222.577 96.974 221.87 97.9834C220.726 99.6137 219.547 101.206 218.316 102.771C218.168 102.958 218.021 103.146 217.87 103.339C217.322 104.031 216.778 104.706 216.152 105.329C215.578 105.906 215.265 106.604 214.875 107.311C214.195 108.407 213.366 109.38 212.55 110.377C211.834 111.257 211.151 112.157 210.475 113.068C209.038 115.001 207.583 116.919 206.116 118.828C204.529 120.896 202.959 122.975 201.398 125.061C200.572 126.164 199.739 127.26 198.887 128.343C196.592 131.056 196.592 131.056 194.974 134.148C194.658 134.253 194.341 134.358 194.015 134.467C193.48 135.209 192.983 135.947 192.498 136.721C191.493 138.318 190.423 139.739 189.162 141.143C188.157 142.3 187.268 143.541 186.368 144.78C186.174 145.045 185.98 145.31 185.78 145.583C184.945 146.723 184.115 147.866 183.288 149.012C183.066 149.32 182.843 149.629 182.614 149.946C182.336 150.336 182.336 150.336 182.051 150.734C181.556 151.382 181.556 151.382 181.072 151.862C180.494 152.444 180.075 153.075 179.619 153.756C178.732 155.045 177.781 156.238 176.764 157.426C175.512 158.899 174.48 160.406 173.473 162.052C172.767 163.118 171.932 164.011 171.064 164.948C170.25 165.888 169.531 166.882 168.817 167.899C167.721 169.458 166.605 170.996 165.442 172.506C165.186 172.84 164.929 173.174 164.665 173.518C163.985 174.362 163.985 174.362 163.447 174.896C162.946 175.36 162.946 175.36 162.507 176.277C161.419 178.254 159.851 179.938 158.377 181.636C157.227 182.967 156.378 184.364 155.659 185.971C155.359 186.49 155.359 186.49 154.401 186.809C153.904 187.437 153.451 188.062 153.003 188.724C151.26 191.231 149.407 193.645 147.543 196.063C146.885 196.921 146.237 197.786 145.589 198.652C145.173 199.207 144.753 199.758 144.331 200.309C144.089 200.626 143.848 200.944 143.598 201.27C143.353 201.592 143.107 201.913 142.853 202.244C142.218 203.061 142.218 203.061 141.941 204.043C141.73 204.043 141.519 204.043 141.302 204.043C140.871 204.591 140.871 204.591 140.444 205.3C139.246 207.155 137.9 208.866 136.506 210.577C135.498 211.819 134.523 213.051 133.655 214.396C132.962 215.46 132.214 216.434 131.398 217.408C130.057 219.015 128.817 220.683 127.585 222.375C126.065 224.461 124.504 226.474 122.8 228.414C122.167 229.214 121.69 230.035 121.198 230.927C120.62 231.879 119.88 232.678 119.139 233.505C117.863 234.963 116.79 236.405 115.877 238.123C115.304 239.02 114.581 239.676 113.827 240.427C113.209 241.186 112.63 241.972 112.05 242.761C111.713 243.214 111.376 243.668 111.039 244.121C110.868 244.353 110.696 244.585 110.519 244.825C109.662 245.981 108.8 247.134 107.937 248.286C107.783 248.494 107.628 248.701 107.469 248.915C106.77 249.849 106.062 250.767 105.308 251.657C104.689 252.403 104.159 253.133 103.644 253.951C103.01 254.922 102.35 255.789 101.568 256.644C100.398 257.934 99.4801 259.343 98.5525 260.813C97.9931 261.612 97.4321 262.306 96.7854 263.03C95.6047 264.353 94.5669 265.751 93.5408 267.196C93.3609 267.448 93.181 267.7 92.9956 267.96C92.6424 268.455 92.2896 268.95 91.9375 269.446C91.5409 270.001 91.1377 270.552 90.7329 271.101C88.9858 273.492 87.8206 275.693 88.2695 278.726C89.0273 281.438 90.5684 284.595 93.0616 286.066C96.0672 287.436 99.3872 287.158 102.61 287.148C103.262 287.149 103.913 287.151 104.565 287.153C106.351 287.157 108.137 287.156 109.923 287.154C111.851 287.152 113.778 287.156 115.706 287.159C119.263 287.165 122.82 287.165 126.376 287.164C129.662 287.162 132.948 287.163 136.234 287.164C136.676 287.165 137.117 287.165 137.558 287.165C138.222 287.165 138.887 287.166 139.552 287.166C145.729 287.17 151.907 287.171 158.085 287.169C158.318 287.169 158.55 287.168 158.79 287.168C160.68 287.168 162.571 287.167 164.461 287.166C171.835 287.163 179.209 287.165 186.583 287.173C194.871 287.181 203.159 287.185 211.447 287.183C212.331 287.183 213.215 287.182 214.099 287.182C214.316 287.182 214.534 287.182 214.758 287.182C218.042 287.181 221.325 287.184 224.609 287.188C228.343 287.193 232.077 287.193 235.812 287.187C237.717 287.185 239.622 287.184 241.527 287.189C243.272 287.193 245.016 287.192 246.761 287.186C247.391 287.184 248.022 287.185 248.653 287.189C253.75 287.282 253.75 287.282 258.17 284.989C258.401 284.713 258.631 284.436 258.869 284.151C259.146 283.855 259.422 283.559 259.707 283.254C261.28 281.146 261.725 279.104 261.425 276.492C260.825 273.721 258.882 271.727 256.632 270.109C254.964 269.303 253.485 269.032 251.622 269.033C251.387 269.032 251.153 269.031 250.912 269.03C250.13 269.027 249.348 269.032 248.566 269.036C247.999 269.036 247.431 269.035 246.864 269.033C245.307 269.031 243.75 269.035 242.193 269.04C240.513 269.044 238.833 269.043 237.153 269.042C234.244 269.041 231.334 269.044 228.425 269.05C224.218 269.058 220.011 269.06 215.804 269.061C208.979 269.063 202.153 269.07 195.328 269.079C188.698 269.088 182.068 269.094 175.438 269.099C174.825 269.099 174.825 269.099 174.199 269.099C172.149 269.101 170.098 269.102 168.048 269.103C151.039 269.113 134.031 269.13 117.022 269.151C118.42 266.687 118.42 266.687 119.104 265.845C119.245 265.668 119.387 265.492 119.532 265.31C119.679 265.129 119.826 264.949 119.977 264.763C121.764 262.529 123.525 260.272 125.069 257.861C125.648 257.023 125.648 257.023 126.387 256.325C127.184 255.492 127.705 254.729 128.304 253.752C129.219 252.269 130.235 251.028 131.415 249.751C132.234 248.821 132.91 247.822 133.607 246.799C134.443 245.613 135.325 244.467 136.211 243.319C137.792 241.264 139.357 239.198 140.903 237.116C141.194 236.726 141.194 236.726 141.492 236.328C141.672 236.085 141.851 235.842 142.036 235.592C142.195 235.378 142.355 235.163 142.519 234.942C142.955 234.332 142.955 234.332 143.219 233.406C143.535 233.3 143.852 233.195 144.177 233.086C145.018 232.01 145.707 230.978 146.354 229.775C147.042 228.53 147.979 227.56 148.936 226.516C150.903 224.442 150.903 224.442 151.845 221.916C152.056 221.916 152.267 221.916 152.484 221.916C152.957 221.375 152.957 221.375 153.432 220.67C153.615 220.413 153.797 220.155 153.985 219.889C154.175 219.617 154.365 219.344 154.56 219.063C154.935 218.528 155.311 217.993 155.689 217.459C155.855 217.22 156.022 216.981 156.193 216.735C156.637 216.171 156.637 216.171 157.276 215.852C157.568 215.334 157.859 214.815 158.143 214.292C158.784 213.24 159.566 212.309 160.346 211.358C160.853 210.785 160.853 210.785 160.79 210.107C161.106 210.002 161.423 209.896 161.749 209.788C162.207 209.219 162.207 209.219 162.627 208.511C163.75 206.763 165.015 205.157 166.308 203.533C166.747 202.98 167.183 202.424 167.619 201.869C167.76 201.693 167.901 201.517 168.046 201.336C168.733 200.457 169.269 199.74 169.416 198.617C169.627 198.617 169.838 198.617 170.055 198.617C170.528 198.077 170.528 198.077 171.003 197.372C171.186 197.114 171.368 196.857 171.556 196.591C171.746 196.318 171.936 196.046 172.131 195.765C172.506 195.229 172.882 194.694 173.26 194.16C173.426 193.921 173.593 193.682 173.764 193.436C174.208 192.873 174.208 192.873 174.847 192.553C175.012 192.251 175.176 191.948 175.346 191.636C176.441 189.642 178.012 187.948 179.497 186.236C180.148 185.483 180.661 184.776 181.137 183.896C181.859 182.564 182.853 181.476 183.838 180.331C184.971 178.994 185.91 177.586 186.805 176.077C187.329 175.285 187.908 174.708 188.584 174.042C189.163 173.353 189.713 172.642 190.262 171.928C190.408 171.741 190.555 171.554 190.706 171.362C191.516 170.418 191.516 170.418 191.779 169.255C191.99 169.255 192.201 169.255 192.418 169.255C192.57 168.959 192.721 168.663 192.877 168.357C194.01 166.37 195.574 164.66 197.068 162.938C197.733 162.168 198.252 161.444 198.744 160.549C199.42 159.349 200.247 158.369 201.164 157.347C202.439 155.889 203.513 154.447 204.426 152.729C204.998 151.831 205.718 151.172 206.475 150.425C206.999 149.776 207.512 149.117 208.012 148.45C208.265 148.116 208.517 147.783 208.777 147.439C209.41 146.677 209.41 146.677 209.35 145.957C209.561 145.957 209.772 145.957 209.989 145.957C210.141 145.66 210.292 145.364 210.448 145.059C211.581 143.072 213.145 141.361 214.639 139.64C215.304 138.87 215.823 138.146 216.315 137.252C216.993 136.049 217.82 135.057 218.735 134.028C221.229 131.492 221.229 131.492 222.449 128.403C222.66 128.403 222.87 128.403 223.088 128.403C223.562 127.835 224.01 127.246 224.445 126.648C224.706 126.292 224.967 125.937 225.228 125.582C225.47 125.249 225.713 124.916 225.963 124.573C226.288 124.14 226.614 123.708 226.941 123.277C227.675 122.303 228.387 121.315 229.098 120.324C229.988 119.094 230.917 117.917 231.893 116.754C232.843 115.613 233.673 114.468 234.449 113.203C235.335 111.76 236.338 110.56 237.485 109.32C239.235 107.426 239.235 107.426 240.02 105.105C240.231 105.105 240.442 105.105 240.659 105.105C241.142 104.581 241.142 104.581 241.635 103.888C241.829 103.626 242.024 103.364 242.224 103.094C242.433 102.81 242.641 102.525 242.855 102.232C243.29 101.645 243.725 101.059 244.159 100.472C244.377 100.177 244.594 99.8822 244.818 99.5785C245.72 98.3565 246.634 97.1425 247.547 95.9288C247.981 95.351 248.415 94.7731 248.849 94.195C249.158 93.7835 249.468 93.3725 249.779 92.9619C250.848 91.5455 251.868 90.1058 252.86 88.6343C253.438 87.8701 253.438 87.8701 254.23 87.0884C255.043 86.2661 255.617 85.4547 256.233 84.479C257.11 83.1296 258.03 81.8789 259.068 80.6492C259.536 80.0783 260.001 79.5065 260.466 78.9337C260.667 78.6975 260.867 78.4614 261.074 78.2181C262.795 75.8801 262.803 73.1762 262.509 70.3797C262.105 68.1252 260.643 66.4949 258.949 65.0504C255.608 62.9213 251.793 63.1586 247.987 63.1734C247.369 63.1723 246.75 63.1708 246.131 63.1689C244.437 63.1649 242.743 63.1669 241.048 63.1699C239.219 63.172 237.389 63.1687 235.56 63.166C231.978 63.1618 228.397 63.1627 224.815 63.1655C221.904 63.1677 218.993 63.1679 216.082 63.1669C215.461 63.1667 215.461 63.1667 214.826 63.1665C213.985 63.1661 213.143 63.1658 212.301 63.1655C204.633 63.1629 196.965 63.1656 189.297 63.1706C182.3 63.1752 175.304 63.1748 168.307 63.1702C160.442 63.1651 152.576 63.1631 144.711 63.166C143.872 63.1663 143.034 63.1666 142.195 63.1669C141.782 63.167 141.369 63.1672 140.944 63.1673C138.037 63.1682 135.129 63.1668 132.222 63.1645C128.679 63.1618 125.136 63.1626 121.593 63.1677C119.785 63.1702 117.978 63.1712 116.17 63.168C114.515 63.1651 112.86 63.1667 111.205 63.1718C110.607 63.1729 110.008 63.1723 109.41 63.17C103.631 63.0476 103.631 63.0476 98.8121 65.8483Z" fill="#EEDBD3"/>
</g>
<defs>
<clipPath id="clip0_5_61">
<rect width="350" height="350" fill="white"/>
</clipPath>
</defs>
</svg>
