<svg width="464" height="170" viewBox="0 0 464 170" fill="none" xmlns="http://www.w3.org/2000/svg">
<path d="M416.007 13.1411L376.091 112.356C375.653 113.451 375.05 114.273 374.284 114.82C373.517 115.368 372.641 115.642 371.655 115.642C370.122 115.642 368.972 115.258 368.206 114.492C367.439 113.616 367.001 112.575 366.892 111.371C366.782 110.823 366.837 110.166 367.056 109.4L410.422 3.28527C410.969 2.08067 411.626 1.25936 412.393 0.821318C413.269 0.273773 414.254 0 415.35 0C416.445 0 417.375 0.328527 418.142 0.985579C419.018 1.53312 419.675 2.29969 420.113 3.28527L463.315 108.907C463.534 109.564 463.643 110.221 463.643 110.878C463.643 112.411 463.15 113.616 462.165 114.492C461.179 115.258 460.029 115.642 458.715 115.642C457.62 115.642 456.634 115.368 455.758 114.82C454.992 114.163 454.39 113.342 453.952 112.356L413.05 12.484L416.007 13.1411Z" fill="#782641"/>
<path d="M329.023 0.492798C330.446 0.492798 331.541 0.930837 332.308 1.80691C333.184 2.68299 333.622 3.77807 333.622 5.09218V110.221C333.622 111.864 333.074 113.178 331.979 114.163C330.994 115.039 329.844 115.477 328.53 115.477C327.873 115.477 327.161 115.368 326.394 115.149C325.628 114.82 325.025 114.382 324.587 113.835L251.326 15.1123L254.118 13.6339V111.042C254.118 112.247 253.68 113.287 252.804 114.163C251.928 115.039 250.833 115.477 249.519 115.477C248.095 115.477 246.946 115.039 246.069 114.163C245.303 113.287 244.92 112.247 244.92 111.042V5.42071C244.92 3.77807 245.412 2.57347 246.398 1.80691C247.384 0.930837 248.479 0.492798 249.683 0.492798C250.34 0.492798 251.052 0.657064 251.819 0.985594C252.585 1.20461 253.188 1.64264 253.626 2.2997L326.066 99.8723L324.423 102.829V5.09218C324.423 3.77807 324.861 2.68299 325.737 1.80691C326.723 0.930837 327.818 0.492798 329.023 0.492798Z" fill="#782641"/>
<path d="M163.862 13.1411L123.946 112.356C123.508 113.451 122.906 114.273 122.139 114.82C121.372 115.368 120.496 115.642 119.511 115.642C117.978 115.642 116.828 115.258 116.061 114.492C115.295 113.616 114.857 112.575 114.747 111.371C114.638 110.823 114.692 110.166 114.911 109.4L158.277 3.28527C158.825 2.08067 159.482 1.25936 160.248 0.821318C161.124 0.273773 162.11 0 163.205 0C164.3 0 165.231 0.328527 165.997 0.985579C166.873 1.53312 167.531 2.29969 167.969 3.28527L211.17 108.907C211.389 109.564 211.498 110.221 211.498 110.878C211.498 112.411 211.006 113.616 210.02 114.492C209.034 115.258 207.885 115.642 206.57 115.642C205.475 115.642 204.49 115.368 203.614 114.82C202.847 114.163 202.245 113.342 201.807 112.356L160.905 12.484L163.862 13.1411Z" fill="#782641"/>
<path d="M83.9387 0.492798C85.5814 0.492798 86.8955 0.985591 87.8811 1.97117C88.8666 2.95675 89.3594 4.1066 89.3594 5.42071C89.3594 6.5158 89.0309 7.50138 88.3738 8.37746L13.6339 107.428L13.3054 106.114H83.7745C85.0886 106.114 86.2384 106.552 87.224 107.428C88.2096 108.304 88.7024 109.4 88.7024 110.714C88.7024 112.028 88.2096 113.178 87.224 114.163C86.2384 115.039 85.0886 115.477 83.7745 115.477H5.09217C3.55905 115.477 2.29969 114.93 1.31411 113.835C0.438036 112.74 0 111.59 0 110.385C0 109.29 0.328527 108.304 0.985581 107.428L75.397 9.19877L76.3826 9.85583H9.19876C7.77515 9.85583 6.57055 9.4178 5.58496 8.54172C4.70889 7.55614 4.27085 6.40629 4.27085 5.09218C4.27085 3.77807 4.70889 2.68299 5.58496 1.80691C6.57055 0.930837 7.77515 0.492798 9.19876 0.492798H83.9387Z" fill="#782641"/>
<path d="M328.717 167.214C328.572 166.966 328.5 166.77 328.5 166.626C328.521 166.461 328.603 166.326 328.748 166.223C328.851 166.12 328.985 166.079 329.15 166.099C329.336 166.099 329.491 166.172 329.615 166.316C330.151 167.08 330.832 167.699 331.658 168.174C332.504 168.648 333.495 168.886 334.63 168.886C335.311 168.886 335.961 168.772 336.58 168.545C337.22 168.318 337.736 167.977 338.128 167.523C338.541 167.069 338.747 166.512 338.747 165.852C338.747 165.15 338.551 164.593 338.159 164.18C337.767 163.747 337.261 163.406 336.642 163.159C336.023 162.911 335.373 162.704 334.692 162.539C333.969 162.354 333.278 162.147 332.618 161.92C331.978 161.673 331.41 161.373 330.915 161.022C330.42 160.651 330.027 160.218 329.739 159.722C329.45 159.227 329.305 158.639 329.305 157.958C329.305 157.153 329.522 156.431 329.955 155.791C330.389 155.151 330.997 154.656 331.782 154.305C332.566 153.933 333.474 153.748 334.506 153.748C335.001 153.748 335.527 153.809 336.085 153.933C336.642 154.057 337.199 154.274 337.756 154.583C338.314 154.872 338.83 155.285 339.304 155.822C339.469 155.946 339.542 156.1 339.521 156.286C339.521 156.451 339.449 156.606 339.304 156.75C339.18 156.833 339.046 156.874 338.902 156.874C338.757 156.874 338.634 156.812 338.53 156.688C337.994 156.09 337.364 155.646 336.642 155.357C335.94 155.068 335.187 154.924 334.382 154.924C333.701 154.924 333.061 155.037 332.463 155.264C331.885 155.491 331.41 155.832 331.039 156.286C330.667 156.719 330.481 157.277 330.481 157.958C330.523 158.597 330.739 159.124 331.132 159.537C331.544 159.949 332.081 160.29 332.741 160.558C333.422 160.826 334.186 161.074 335.032 161.301C335.713 161.466 336.343 161.662 336.921 161.889C337.519 162.096 338.035 162.364 338.468 162.694C338.922 163.024 339.273 163.437 339.521 163.932C339.789 164.428 339.923 165.047 339.923 165.79C339.923 166.657 339.686 167.41 339.211 168.05C338.757 168.669 338.118 169.154 337.292 169.505C336.487 169.835 335.558 170 334.506 170C333.433 170 332.401 169.783 331.41 169.35C330.42 168.917 329.522 168.205 328.717 167.214Z" fill="#782641"/>
<path d="M317.675 161.889C317.675 163.416 317.345 164.799 316.685 166.038C316.024 167.255 315.116 168.225 313.96 168.947C312.825 169.649 311.525 170 310.06 170C308.615 170 307.315 169.649 306.159 168.947C305.003 168.225 304.085 167.255 303.404 166.038C302.744 164.799 302.413 163.416 302.413 161.889C302.413 160.341 302.744 158.959 303.404 157.741C304.085 156.503 305.003 155.533 306.159 154.831C307.315 154.109 308.615 153.748 310.06 153.748C311.525 153.748 312.825 154.109 313.96 154.831C315.116 155.533 316.024 156.503 316.685 157.741C317.345 158.959 317.675 160.341 317.675 161.889ZM316.437 161.889C316.437 160.548 316.158 159.361 315.601 158.329C315.064 157.277 314.311 156.451 313.341 155.853C312.392 155.233 311.298 154.924 310.06 154.924C308.842 154.924 307.748 155.233 306.778 155.853C305.808 156.451 305.045 157.277 304.487 158.329C303.93 159.361 303.652 160.548 303.652 161.889C303.652 163.21 303.93 164.397 304.487 165.449C305.045 166.481 305.808 167.307 306.778 167.926C307.748 168.524 308.842 168.824 310.06 168.824C311.298 168.824 312.392 168.524 313.341 167.926C314.311 167.307 315.064 166.481 315.601 165.449C316.158 164.397 316.437 163.21 316.437 161.889Z" fill="#782641"/>
<path d="M290.493 169.071C290.493 169.236 290.431 169.381 290.307 169.505C290.184 169.629 290.039 169.69 289.874 169.69C289.688 169.69 289.534 169.629 289.41 169.505C289.307 169.381 289.255 169.236 289.255 169.071V154.367C289.255 154.202 289.317 154.057 289.441 153.933C289.565 153.81 289.709 153.748 289.874 153.748C290.06 153.748 290.204 153.81 290.307 153.933C290.431 154.057 290.493 154.202 290.493 154.367V169.071ZM289.874 151.643C289.544 151.643 289.276 151.55 289.069 151.364C288.883 151.178 288.791 150.941 288.791 150.652V150.404C288.791 150.115 288.894 149.878 289.1 149.692C289.307 149.506 289.575 149.414 289.905 149.414C290.194 149.414 290.431 149.506 290.617 149.692C290.823 149.878 290.927 150.115 290.927 150.404V150.652C290.927 150.941 290.823 151.178 290.617 151.364C290.431 151.55 290.184 151.643 289.874 151.643Z" fill="#782641"/>
<path d="M270.738 169.69C270.552 169.69 270.397 169.629 270.273 169.505C270.17 169.381 270.118 169.236 270.118 169.071V154.862C270.118 154.697 270.18 154.552 270.304 154.429C270.428 154.305 270.572 154.243 270.738 154.243C270.923 154.243 271.068 154.305 271.171 154.429C271.295 154.552 271.357 154.697 271.357 154.862V160.094L270.83 160.899C270.83 160.094 270.965 159.279 271.233 158.453C271.522 157.628 271.935 156.864 272.471 156.162C273.008 155.44 273.658 154.862 274.421 154.429C275.206 153.975 276.103 153.748 277.115 153.748C277.404 153.748 277.713 153.789 278.043 153.871C278.374 153.954 278.539 154.15 278.539 154.46C278.539 154.645 278.487 154.8 278.384 154.924C278.281 155.048 278.147 155.11 277.981 155.11C277.858 155.11 277.703 155.068 277.517 154.986C277.352 154.883 277.104 154.831 276.774 154.831C276.114 154.831 275.464 155.027 274.824 155.419C274.184 155.811 273.596 156.338 273.059 156.998C272.543 157.638 272.131 158.34 271.821 159.103C271.511 159.867 271.357 160.61 271.357 161.332V169.071C271.357 169.236 271.295 169.381 271.171 169.505C271.047 169.629 270.903 169.69 270.738 169.69Z" fill="#782641"/>
<path d="M258.21 161.889C258.21 163.416 257.88 164.799 257.219 166.038C256.559 167.255 255.651 168.225 254.495 168.947C253.36 169.649 252.06 170 250.594 170C249.15 170 247.85 169.649 246.694 168.947C245.538 168.225 244.62 167.255 243.939 166.038C243.278 164.799 242.948 163.416 242.948 161.889C242.948 160.341 243.278 158.959 243.939 157.741C244.62 156.503 245.538 155.533 246.694 154.831C247.85 154.109 249.15 153.748 250.594 153.748C252.06 153.748 253.36 154.109 254.495 154.831C255.651 155.533 256.559 156.503 257.219 157.741C257.88 158.959 258.21 160.341 258.21 161.889ZM256.972 161.889C256.972 160.548 256.693 159.361 256.136 158.329C255.599 157.277 254.846 156.451 253.876 155.853C252.926 155.234 251.833 154.924 250.594 154.924C249.377 154.924 248.283 155.234 247.313 155.853C246.343 156.451 245.579 157.277 245.022 158.329C244.465 159.361 244.186 160.548 244.186 161.889C244.186 163.21 244.465 164.397 245.022 165.449C245.579 166.481 246.343 167.307 247.313 167.926C248.283 168.524 249.377 168.824 250.594 168.824C251.833 168.824 252.926 168.524 253.876 167.926C254.846 167.307 255.599 166.481 256.136 165.449C256.693 164.397 256.972 163.21 256.972 161.889ZM250.037 152.478C249.934 152.478 249.851 152.437 249.79 152.354C249.728 152.272 249.697 152.189 249.697 152.107C249.697 152.004 249.748 151.87 249.851 151.704L251.771 148.825C251.833 148.722 251.926 148.619 252.049 148.516C252.194 148.392 252.369 148.33 252.576 148.33C252.803 148.33 252.988 148.392 253.133 148.516C253.298 148.64 253.381 148.836 253.381 149.104C253.381 149.228 253.36 149.331 253.319 149.414C253.277 149.475 253.226 149.548 253.164 149.63L250.842 152.014C250.739 152.117 250.615 152.22 250.471 152.324C250.347 152.427 250.202 152.478 250.037 152.478Z" fill="#782641"/>
<path d="M220.911 167.214C220.767 166.966 220.695 166.77 220.695 166.626C220.715 166.461 220.798 166.326 220.942 166.223C221.046 166.12 221.18 166.079 221.345 166.099C221.531 166.099 221.685 166.172 221.809 166.316C222.346 167.08 223.027 167.699 223.852 168.174C224.699 168.648 225.689 168.886 226.824 168.886C227.505 168.886 228.155 168.772 228.775 168.545C229.414 168.318 229.93 167.977 230.322 167.523C230.735 167.069 230.942 166.512 230.942 165.852C230.942 165.15 230.745 164.593 230.353 164.18C229.961 163.747 229.456 163.406 228.836 163.159C228.217 162.911 227.567 162.704 226.886 162.539C226.164 162.354 225.472 162.147 224.812 161.92C224.172 161.673 223.605 161.373 223.109 161.022C222.614 160.651 222.222 160.218 221.933 159.722C221.644 159.227 221.5 158.639 221.5 157.958C221.5 157.153 221.716 156.431 222.15 155.791C222.583 155.151 223.192 154.656 223.976 154.305C224.76 153.933 225.669 153.748 226.7 153.748C227.196 153.748 227.722 153.809 228.279 153.933C228.836 154.057 229.394 154.274 229.951 154.583C230.508 154.872 231.024 155.285 231.499 155.822C231.664 155.946 231.736 156.1 231.715 156.286C231.715 156.451 231.643 156.606 231.499 156.75C231.375 156.833 231.241 156.874 231.096 156.874C230.952 156.874 230.828 156.812 230.725 156.688C230.188 156.09 229.559 155.646 228.836 155.357C228.135 155.068 227.381 154.924 226.577 154.924C225.896 154.924 225.256 155.037 224.657 155.264C224.079 155.491 223.605 155.832 223.233 156.286C222.862 156.719 222.676 157.277 222.676 157.958C222.717 158.597 222.934 159.124 223.326 159.537C223.739 159.949 224.275 160.29 224.936 160.558C225.617 160.826 226.381 161.074 227.227 161.301C227.908 161.466 228.537 161.662 229.115 161.889C229.714 162.096 230.23 162.364 230.663 162.694C231.117 163.024 231.468 163.437 231.715 163.932C231.984 164.428 232.118 165.047 232.118 165.79C232.118 166.657 231.881 167.41 231.406 168.05C230.952 168.669 230.312 169.154 229.487 169.505C228.682 169.835 227.753 170 226.7 170C225.627 170 224.595 169.783 223.605 169.35C222.614 168.917 221.716 168.205 220.911 167.214Z" fill="#782641"/>
<path d="M198.782 167.214C198.637 166.966 198.565 166.77 198.565 166.626C198.586 166.461 198.668 166.326 198.813 166.223C198.916 166.12 199.05 166.079 199.215 166.099C199.401 166.099 199.556 166.172 199.68 166.316C200.216 167.08 200.897 167.699 201.723 168.174C202.569 168.648 203.56 168.886 204.695 168.886C205.376 168.886 206.026 168.772 206.645 168.545C207.285 168.318 207.801 167.977 208.193 167.523C208.606 167.069 208.812 166.512 208.812 165.852C208.812 165.15 208.616 164.593 208.224 164.18C207.832 163.747 207.326 163.406 206.707 163.159C206.088 162.911 205.438 162.704 204.757 162.539C204.034 162.354 203.343 162.147 202.683 161.92C202.043 161.673 201.475 161.373 200.98 161.022C200.485 160.651 200.092 160.218 199.804 159.722C199.515 159.227 199.37 158.639 199.37 157.958C199.37 157.153 199.587 156.431 200.02 155.791C200.454 155.151 201.062 154.656 201.847 154.305C202.631 153.933 203.539 153.748 204.571 153.748C205.066 153.748 205.592 153.809 206.15 153.933C206.707 154.057 207.264 154.274 207.821 154.583C208.379 154.872 208.895 155.285 209.369 155.822C209.534 155.946 209.607 156.1 209.586 156.286C209.586 156.451 209.514 156.606 209.369 156.75C209.245 156.833 209.111 156.874 208.967 156.874C208.822 156.874 208.699 156.812 208.595 156.688C208.059 156.09 207.429 155.646 206.707 155.357C206.005 155.068 205.252 154.924 204.447 154.924C203.766 154.924 203.126 155.037 202.528 155.264C201.95 155.491 201.475 155.832 201.104 156.286C200.732 156.719 200.546 157.277 200.546 157.958C200.588 158.597 200.804 159.124 201.197 159.537C201.609 159.949 202.146 160.29 202.806 160.558C203.487 160.826 204.251 161.074 205.097 161.301C205.778 161.466 206.408 161.662 206.986 161.889C207.584 162.096 208.1 162.364 208.533 162.694C208.987 163.024 209.338 163.437 209.586 163.932C209.854 164.428 209.988 165.047 209.988 165.79C209.988 166.657 209.751 167.41 209.276 168.05C208.822 168.669 208.183 169.154 207.357 169.505C206.552 169.835 205.623 170 204.571 170C203.498 170 202.466 169.783 201.475 169.35C200.485 168.917 199.587 168.205 198.782 167.214Z" fill="#782641"/>
<path d="M181.673 170C180.125 170 178.753 169.67 177.556 169.009C176.379 168.349 175.451 167.42 174.77 166.223C174.089 165.006 173.748 163.582 173.748 161.951C173.748 160.218 174.078 158.742 174.739 157.524C175.42 156.307 176.287 155.378 177.339 154.738C178.412 154.078 179.547 153.748 180.744 153.748C181.611 153.748 182.457 153.892 183.283 154.181C184.108 154.449 184.841 154.883 185.481 155.481C186.141 156.059 186.668 156.792 187.06 157.679C187.472 158.546 187.699 159.588 187.741 160.806C187.741 160.971 187.679 161.126 187.555 161.27C187.431 161.394 187.287 161.456 187.122 161.456H174.491L174.305 160.279H186.781L186.471 160.558V160.001C186.368 158.907 186.017 157.989 185.419 157.246C184.841 156.503 184.139 155.946 183.314 155.574C182.488 155.182 181.632 154.986 180.744 154.986C180.125 154.986 179.475 155.13 178.794 155.419C178.113 155.688 177.484 156.111 176.906 156.688C176.328 157.246 175.853 157.958 175.482 158.825C175.131 159.691 174.955 160.703 174.955 161.858C174.955 163.117 175.203 164.273 175.698 165.325C176.214 166.378 176.968 167.224 177.958 167.864C178.97 168.504 180.208 168.824 181.673 168.824C182.375 168.824 183.035 168.71 183.654 168.483C184.274 168.235 184.831 167.916 185.326 167.523C185.821 167.131 186.224 166.708 186.533 166.254C186.698 166.068 186.874 165.976 187.06 165.976C187.204 165.976 187.328 166.038 187.431 166.161C187.534 166.265 187.586 166.388 187.586 166.533C187.586 166.677 187.545 166.801 187.462 166.904C186.822 167.73 185.997 168.452 184.986 169.071C183.995 169.69 182.891 170 181.673 170Z" fill="#782641"/>
<path d="M157.818 153.748C158.746 153.748 159.613 153.851 160.418 154.057C161.244 154.264 161.904 154.542 162.399 154.893C162.915 155.223 163.173 155.574 163.173 155.946C163.173 156.09 163.111 156.234 162.987 156.379C162.884 156.503 162.75 156.565 162.585 156.565C162.358 156.565 162.172 156.503 162.028 156.379C161.904 156.255 161.77 156.111 161.625 155.946C161.481 155.76 161.254 155.595 160.944 155.45C160.655 155.306 160.243 155.182 159.706 155.079C159.19 154.976 158.55 154.924 157.787 154.924C156.59 154.924 155.496 155.233 154.505 155.853C153.515 156.472 152.72 157.308 152.121 158.36C151.544 159.392 151.255 160.558 151.255 161.858C151.255 163.179 151.523 164.366 152.06 165.418C152.617 166.471 153.38 167.307 154.35 167.926C155.341 168.524 156.486 168.824 157.787 168.824C158.715 168.824 159.417 168.741 159.892 168.576C160.387 168.39 160.81 168.194 161.161 167.988C161.594 167.74 161.894 167.503 162.059 167.276C162.224 167.049 162.42 166.935 162.647 166.935C162.812 166.935 162.936 166.987 163.018 167.09C163.122 167.193 163.173 167.327 163.173 167.492C163.173 167.74 162.946 168.07 162.492 168.483C162.038 168.875 161.398 169.226 160.573 169.536C159.768 169.845 158.808 170 157.694 170C156.187 170 154.856 169.649 153.7 168.947C152.545 168.225 151.637 167.255 150.976 166.038C150.336 164.799 150.016 163.406 150.016 161.858C150.016 160.414 150.336 159.082 150.976 157.865C151.637 156.627 152.545 155.636 153.7 154.893C154.877 154.129 156.249 153.748 157.818 153.748Z" fill="#782641"/>
<path d="M137.49 154.243C137.676 154.243 137.82 154.305 137.924 154.429C138.047 154.552 138.109 154.697 138.109 154.862V169.071C138.109 169.236 138.047 169.381 137.924 169.505C137.8 169.629 137.655 169.69 137.49 169.69C137.304 169.69 137.15 169.629 137.026 169.505C136.923 169.381 136.871 169.236 136.871 169.071V164.675L137.366 164.273C137.366 164.933 137.201 165.604 136.871 166.285C136.541 166.966 136.087 167.585 135.509 168.143C134.931 168.7 134.25 169.154 133.466 169.505C132.682 169.835 131.835 170 130.927 170C129.545 170 128.306 169.639 127.212 168.917C126.139 168.194 125.293 167.214 124.674 165.976C124.055 164.737 123.745 163.344 123.745 161.796C123.745 160.228 124.055 158.845 124.674 157.648C125.314 156.431 126.17 155.481 127.243 154.8C128.337 154.098 129.565 153.748 130.927 153.748C131.815 153.748 132.651 153.913 133.435 154.243C134.219 154.552 134.9 154.996 135.478 155.574C136.076 156.152 136.541 156.833 136.871 157.617C137.201 158.381 137.366 159.217 137.366 160.125L136.871 159.351V154.862C136.871 154.697 136.923 154.552 137.026 154.429C137.15 154.305 137.304 154.243 137.49 154.243ZM130.989 168.824C132.145 168.824 133.177 168.524 134.085 167.926C134.993 167.307 135.705 166.471 136.221 165.418C136.737 164.345 136.995 163.138 136.995 161.796C136.995 160.517 136.737 159.361 136.221 158.329C135.705 157.277 134.993 156.451 134.085 155.853C133.177 155.233 132.145 154.924 130.989 154.924C129.854 154.924 128.833 155.223 127.924 155.822C127.016 156.4 126.294 157.204 125.757 158.236C125.241 159.268 124.984 160.455 124.984 161.796C124.984 163.138 125.241 164.345 125.757 165.418C126.273 166.471 126.985 167.307 127.893 167.926C128.802 168.524 129.833 168.824 130.989 168.824Z" fill="#782641"/>
</svg>
